<?xml version="1.0" encoding="UTF-8" standalone="no"?>
<svg width="22px" height="18px" viewBox="0 0 22 18" version="1.1" xmlns="http://www.w3.org/2000/svg" xmlns:xlink="http://www.w3.org/1999/xlink">
  <!-- Generator: Sketch 52.5 (67469) - http://www.bohemiancoding.com/sketch -->
  <title>cast_connected</title>
  <desc>Created with Sketch.</desc>
  <g id="Icons" stroke-width="1" stroke="none" fill-rule="evenodd" fill="none">
    <g id="Rounded" transform="translate(-135.000000, -2461.000000)">
      <g id="Hardware" transform="translate(100.000000, 2404.000000)">
        <g id="-Round-/-Hardware-/-cast_connected" transform="translate(34.000000, 54.000000)">
          <g>
            <rect id="Rectangle-Copy-89" x="0" y="0" width="24" height="24" />
            <path d="M 21,3 H 3 C 1.9,3 1,3.9 1,5 V 7 C 1,7.55 1.45,8 2,8 2.55,8 3,7.55 3,7 V 6 C 3,5.45 3.45,5 4,5 h 16 c 0.55,0 1,0.45 1,1 v 12 c 0,0.55 -0.45,1 -1,1 h -5 c -0.55,0 -1,0.45 -1,1 0,0.55 0.45,1 1,1 h 6 c 1.1,0 2,-0.9 2,-2 V 5 C 23,3.9 22.1,3 21,3 Z M 1,18 v 3 H 4 C 4,20.38 3.81,19.8 3.49,19.32 2.95,18.52 2.04,18 1,18 Z m 1.14,-3.91 c -0.6,-0.1 -1.14,0.39 -1.14,1 0,0.49 0.36,0.9 0.85,0.98 2.08,0.36 3.72,2 4.08,4.08 C 6.01,20.64 6.42,21 6.91,21 7.52,21 8,20.46 7.91,19.86 7.43,16.9 5.09,14.57 2.14,14.09 Z M 2.1,10.05 C 1.51,10 1,10.46 1,11.05 c 0,0.51 0.38,0.94 0.88,0.99 4.27,0.41 7.67,3.81 8.08,8.08 0.05,0.5 0.48,0.87 0.99,0.87 0.6,0 1.06,-0.52 1,-1.11 C 11.42,14.69 7.29,10.57 2.1,10.05 Z"
                  id="🔹-Icon-Color"
                  fill="#1d1d1d" />
          </g>
        </g>
      </g>
    </g>
  </g>
</svg>